<svg width="38" height="39" viewBox="0 0 38 39" fill="none" xmlns="http://www.w3.org/2000/svg">
<path d="M37.8776 12.0098C37.8563 10.4143 37.5571 8.83461 36.9934 7.34146C36.5046 6.08199 35.758 4.93817 34.8013 3.98308C33.8447 3.02798 32.6989 2.28262 31.4374 1.79461C29.961 1.24131 28.4012 0.942131 26.8245 0.909812C24.7945 0.819225 24.1509 0.793945 18.9979 0.793945C13.8448 0.793945 13.1844 0.793945 11.1691 0.909812C9.59318 0.942368 8.03416 1.24154 6.55842 1.79461C5.29666 2.28228 4.15076 3.02752 3.19403 3.98266C2.2373 4.9378 1.49081 6.08179 1.00233 7.34146C0.447 8.81429 0.147972 10.3711 0.11817 11.9445C0.0274322 13.9732 0 14.6158 0 19.7602C0 24.9047 -1.5722e-08 25.562 0.11817 27.576C0.149822 29.1517 0.447356 30.7065 1.00233 32.1832C1.49163 33.4425 2.23867 34.5861 3.19572 35.5408C4.15277 36.4955 5.29878 37.2404 6.56053 37.728C8.03223 38.3035 9.59152 38.6241 11.1713 38.676C13.2034 38.7666 13.847 38.7939 19 38.7939C24.153 38.7939 24.8135 38.7939 26.8287 38.676C28.4054 38.645 29.9652 38.3465 31.4416 37.7933C32.7028 37.3047 33.8483 36.5591 34.8049 35.6041C35.7615 34.6491 36.5083 33.5056 36.9977 32.2464C37.5526 30.7718 37.8502 29.2171 37.8818 27.6392C37.9726 25.6126 38 24.97 38 19.8234C37.9958 14.679 37.9958 14.0259 37.8776 12.0098ZM18.9852 29.4888C13.5958 29.4888 9.2299 25.1301 9.2299 19.7497C9.2299 14.3693 13.5958 10.0106 18.9852 10.0106C21.5725 10.0106 24.0538 11.0367 25.8833 12.8631C27.7128 14.6896 28.7406 17.1667 28.7406 19.7497C28.7406 22.3327 27.7128 24.8099 25.8833 26.6363C24.0538 28.4627 21.5725 29.4888 18.9852 29.4888ZM29.1288 11.9213C28.83 11.9216 28.5341 11.8631 28.258 11.749C27.9819 11.635 27.731 11.4677 27.5197 11.2568C27.3084 11.0459 27.1409 10.7954 27.0267 10.5198C26.9124 10.2441 26.8538 9.94867 26.8541 9.65036C26.8541 9.35227 26.9129 9.0571 27.0271 8.7817C27.1414 8.5063 27.3089 8.25606 27.52 8.04528C27.7312 7.83449 27.9818 7.66729 28.2577 7.55322C28.5335 7.43914 28.8292 7.38043 29.1278 7.38043C29.4264 7.38043 29.722 7.43914 29.9979 7.55322C30.2737 7.66729 30.5244 7.83449 30.7355 8.04528C30.9467 8.25606 31.1141 8.5063 31.2284 8.7817C31.3427 9.0571 31.4015 9.35227 31.4015 9.65036C31.4015 10.9059 30.3844 11.9213 29.1288 11.9213Z" fill="#424242"/>
<path d="M19 25.7939C22.3137 25.7939 25 23.1077 25 19.7939C25 16.4802 22.3137 13.7939 19 13.7939C15.6863 13.7939 13 16.4802 13 19.7939C13 23.1077 15.6863 25.7939 19 25.7939Z" fill="#424242"/>
</svg>
