<svg width="62" height="49" viewBox="0 0 62 49" fill="none" xmlns="http://www.w3.org/2000/svg">
<path d="M47.9083 29.4589C48.5976 29.4589 49.259 29.3476 49.9174 29.2462C49.7041 30.0055 49.4846 30.778 49.1323 31.4719C48.7799 32.4801 48.2298 33.354 47.6827 34.2345C47.2253 35.187 46.4186 35.8319 45.8251 36.6469C45.2039 37.439 44.357 37.966 43.6863 38.6239C43.028 39.3113 42.1656 39.655 41.4795 40.1394C40.7624 40.5748 40.1381 41.0559 39.4705 41.285L37.8045 42.0117L36.3395 42.6565L37.8385 49L39.6837 48.5287C40.2741 48.3715 40.9942 48.1882 41.8133 47.9689C42.6509 47.8053 43.5441 47.3568 44.5394 46.9477C45.5222 46.4829 46.6597 46.1687 47.7167 45.4224C48.7799 44.7088 50.007 44.1131 51.0888 43.1573C52.1366 42.1721 53.4007 41.3178 54.3341 40.0641C55.3541 38.8923 56.3617 37.6616 57.1436 36.2607C58.0493 34.9252 58.6643 33.4588 59.3134 32.0088C59.9006 30.5587 60.3735 29.076 60.7599 27.6357C61.4924 24.7488 61.82 22.0058 61.9468 19.6589C62.0518 17.3088 61.99 15.3546 61.8602 13.9406C61.8138 13.2729 61.7273 12.6248 61.6655 12.1764L61.5882 11.6265L61.5079 11.6461C60.9581 8.92661 59.6926 6.42752 57.8577 4.43789C56.0228 2.44827 53.6936 1.04943 51.1393 0.403188C48.5851 -0.243056 45.9103 -0.110289 43.4243 0.786123C40.9384 1.68254 38.7429 3.30597 37.0917 5.46862C35.4406 7.63127 34.4014 10.2448 34.0943 13.0068C33.7871 15.7688 34.2246 18.5665 35.3562 21.0762C36.4877 23.5858 38.2671 25.705 40.4884 27.1885C42.7097 28.6719 45.2822 29.4591 47.9083 29.4589ZM13.9095 29.4589C14.5988 29.4589 15.2602 29.3476 15.9186 29.2462C15.7053 30.0056 15.4858 30.778 15.1335 31.4719C14.7811 32.4801 14.231 33.354 13.6839 34.2345C13.2265 35.187 12.4198 35.8319 11.8263 36.6469C11.2051 37.439 10.3582 37.966 9.6875 38.6239C9.02916 39.3113 8.16683 39.655 7.48067 40.1394C6.7636 40.5748 6.13927 41.0559 5.47165 41.285L3.80571 42.0117L2.34067 42.6565L3.83971 49L5.68492 48.5287C6.27526 48.3715 6.99541 48.1882 7.81448 47.9689C8.65208 47.8053 9.54533 47.3569 10.5406 46.9477C11.5203 46.4796 12.6609 46.1687 13.7179 45.4191C14.7811 44.7055 16.0082 44.1098 17.09 43.154C18.1377 42.1688 19.4019 41.3145 20.3353 40.0641C21.3553 38.8923 22.3629 37.6616 23.1448 36.2607C24.0505 34.9252 24.6655 33.4588 25.3146 32.0088C25.9018 30.5587 26.3747 29.076 26.7611 27.6357C27.4936 24.7488 27.8212 22.0058 27.9479 19.6589C28.053 17.3088 27.9912 15.3546 27.8614 13.9406C27.815 13.2729 27.7285 12.6248 27.6667 12.1764L27.5894 11.6265L27.5091 11.6461C26.9593 8.92661 25.6938 6.42752 23.8589 4.4379C22.024 2.44827 19.6948 1.04943 17.1405 0.403191C14.5863 -0.243053 11.9115 -0.110286 9.42554 0.786126C6.93958 1.68254 4.74406 3.30597 3.09295 5.46862C1.44183 7.63128 0.402592 10.2448 0.0954558 13.0068C-0.21168 15.7688 0.225831 18.5665 1.35738 21.0762C2.48894 23.5858 4.26828 25.705 6.4896 27.1885C8.71091 28.6719 11.2834 29.4591 13.9095 29.4589Z" fill="#DCA514"/>
</svg>
